Coordinates
version=1
nRows=117
nColumns=6
inDegrees=yes

Units are S.I. units (second, meters, Newtons, ...)
If the header above contains a line with 'inDegrees', this indicates whether rotational values are in degrees (yes) or radians (no).

endheader
time	foot_tx	hip_flexion_r	knee_angle_r	ankle_angle_r	lumbar
     45.80000000	      0.25070080	     42.13899412	    -38.56137674	      8.97762070	    -27.43871444
     45.81000000	      0.25085572	     40.83831018	    -37.34339909	      8.72210831	    -27.03403046
     45.82000000	      0.25100609	     39.55780574	    -36.12752460	      8.46283803	    -26.60780043
     45.83000000	      0.25114320	     38.28900133	    -34.91736668	      8.20265373	    -26.17156788
     45.84000000	      0.25126764	     37.04339467	    -33.71539698	      7.94159288	    -25.71418152
     45.85000000	      0.25137675	     35.82615468	    -32.52514172	      7.68135461	    -25.23107661
     45.86000000	      0.25146720	     34.63884949	    -31.35091992	      7.42499440	    -24.72013140
     45.87000000	      0.25154151	     33.48590404	    -30.19506846	      7.17367577	    -24.17651815
     45.88000000	      0.25159966	     32.36407312	    -29.06030661	      6.92939963	    -23.60539993
     45.89000000	      0.25164172	     31.27033293	    -27.94965427	      6.69425440	    -23.01153348
     45.90000000	      0.25167516	     30.21431047	    -26.86443752	      6.46746582	    -22.38726223
     45.91000000	      0.25170066	     29.19134400	    -25.80746448	      6.25064752	    -21.74141021
     45.92000000	      0.25171786	     28.20512983	    -24.78402131	      6.04613993	    -21.07494170
     45.93000000	      0.25173911	     27.26085491	    -23.79218509	      5.85124143	    -20.38569818
     45.94000000	      0.25175397	     26.35441410	    -22.83906205	      5.67060161	    -19.68259534
     45.95000000	      0.25177086	     25.48910725	    -21.92572019	      5.50356418	    -18.96675428
     45.96000000	      0.25178738	     24.66175806	    -21.05193081	      5.35014584	    -18.24266695
     45.97000000	      0.25180431	     23.86956115	    -20.21862200	      5.21059513	    -17.51663103
     45.98000000	      0.25182616	     23.11131873	    -19.42431839	      5.08371148	    -16.79103329
     45.99000000	      0.25185453	     22.38266857	    -18.66713147	      4.96842345	    -16.07112472
     46.00000000	      0.25189542	     21.71880439	    -17.95235165	      4.86440398	    -15.32153660
     46.01000000	      0.25194767	     21.01257836	    -17.26299764	      4.77080321	    -14.65340671
     46.02000000	      0.25201713	     20.38498642	    -16.61504615	      4.68642403	    -13.94169354
     46.03000000	      0.25210066	     19.77207336	    -15.99807284	      4.61090283	    -13.25203233
     46.04000000	      0.25219649	     19.17525403	    -15.40867990	      4.54243325	    -12.58184530
     46.05000000	      0.25229906	     18.59718170	    -14.84927574	      4.48261825	    -11.92938392
     46.06000000	      0.25240628	     18.03961608	    -14.31609278	      4.42935308	    -11.29166357
     46.07000000	      0.25251470	     17.50325561	    -13.80994624	      4.38320107	    -10.66886749
     46.08000000	      0.25262025	     17.02493520	    -13.33686453	      4.34477437	    -10.02324627
     46.09000000	      0.25272165	     16.52252767	    -12.88060483	      4.31163540	     -9.43939396
     46.10000000	      0.25281521	     16.08578384	    -12.45711210	      4.28550027	     -8.82596510
     46.11000000	      0.25290268	     15.61937157	    -12.04819005	      4.26390185	     -8.27961910
     46.12000000	      0.25298018	     15.22676159	    -11.67113798	      4.24821713	     -7.69492823
     46.13000000	      0.25305343	     14.79421521	    -11.30460796	      4.23551017	     -7.18715945
     46.14000000	      0.25311653	     14.43810772	    -10.96843002	      4.22809032	     -6.63581558
     46.15000000	      0.25317571	     14.06397085	    -10.64532618	      4.22423924	     -6.13319862
     46.16000000	      0.25323219	     13.67064113	    -10.33251847	      4.22253769	     -5.68049230
     46.17000000	      0.25328051	     13.34059608	    -10.04522219	      4.22600993	     -5.18877773
     46.18000000	      0.25332782	     12.96588045	     -9.76062448	      4.23027632	     -4.76684207
     46.19000000	      0.25336969	     12.64180327	     -9.49954173	      4.23964408	     -4.31919094
     46.20000000	      0.25340968	     12.28862540	     -9.24326560	      4.24951549	     -3.92605530
     46.21000000	      0.25344803	     11.95485252	     -9.00350417	      4.26213818	     -3.54125987
     46.22000000	      0.25348394	     11.67522618	     -8.78715991	      4.27840560	     -3.13075704
     46.23000000	      0.25351840	     11.36191707	     -8.57561522	      4.29540321	     -2.77999529
     46.24000000	      0.25355668	     11.06690769	     -8.37919301	      4.31435525	     -2.43854982
     46.25000000	      0.25359272	     10.82326362	     -8.20455692	      4.33733983	     -2.06924247
     46.26000000	      0.25362669	     10.54170357	     -8.02857432	      4.35907393	     -1.76001982
     46.27000000	      0.25365739	     10.27405277	     -7.86392659	      4.38260263	     -1.45768912
     46.28000000	      0.25367896	     10.01622555	     -7.70624159	      4.40659121	     -1.16317102
     46.29000000	      0.25368758	      9.76497195	     -7.55285043	      4.43032190	     -0.87729887
     46.30000000	      0.25368038	      9.51776162	     -7.40148446	      4.45311849	     -0.60037428
     46.31000000	      0.25365455	      9.27302295	     -7.25023681	      4.47424093	     -0.33228075
     46.32000000	      0.25360726	      9.02973959	     -7.09681990	      4.49253645	     -0.07278860
     46.33000000	      0.25354129	      8.78845016	     -6.93864323	      4.50597983	      0.17826892
     46.34000000	      0.25344187	      8.54627479	     -6.77402445	      4.51540716	      0.42403316
     46.35000000	      0.25331906	      8.30649564	     -6.60193602	      4.51855526	      0.66348625
     46.36000000	      0.25316068	      8.06110419	     -6.41903350	      4.51590129	      0.89588150
     46.37000000	      0.25296748	      7.81774184	     -6.22472485	      4.50633559	      1.12804236
     46.38000000	      0.25273412	      7.53225815	     -6.01222579	      4.49000655	      1.31628935
     46.39000000	      0.25246696	      7.29439069	     -5.79485362	      4.46730366	      1.55441322
     46.40000000	      0.25215589	      7.00230656	     -5.55801501	      4.43865114	      1.73691173
     46.41000000	      0.25180802	      6.72717815	     -5.31008493	      4.40348373	      1.94063295
     46.42000000	      0.25142249	      6.44434946	     -5.04966224	      4.36307256	      2.13889134
     46.43000000	      0.25099829	      6.15486531	     -4.77618924	      4.31758544	      2.33385910
     46.44000000	      0.25053987	      5.85922630	     -4.49291574	      4.26856082	      2.52433274
     46.45000000	      0.25005441	      5.55812366	     -4.20070674	      4.21608357	      2.71010602
     46.46000000	      0.24954444	      5.25617717	     -3.90398215	      4.16203308	      2.89329328
     46.47000000	      0.24902486	      4.95285173	     -3.60728163	      4.10783944	      3.07021443
     46.48000000	      0.24850558	      4.65444845	     -3.31570309	      4.05487050	      3.24276483
     46.49000000	      0.24799835	      4.36423243	     -3.03650018	      4.00595599	      3.40948664
     46.50000000	      0.24753139	      4.08875449	     -2.77387515	      3.96134188	      3.57472748
     46.51000000	      0.24711098	      3.83250160	     -2.53867473	      3.92553391	      3.73373647
     46.52000000	      0.24675849	      3.59964099	     -2.33573267	      3.89953076	      3.88601090
     46.53000000	      0.24648896	      3.42260293	     -2.17481815	      3.88486823	      4.05948949
     46.54000000	      0.24630740	      3.26081100	     -2.05518190	      3.88302821	      4.20421432
     46.55000000	      0.24621361	      3.12086901	     -1.97783323	      3.89361427	      4.32431039
     46.56000000	      0.24620388	      3.01038542	     -1.94421565	      3.91660241	      4.42628148
     46.57000000	      0.24627510	      2.92762205	     -1.94606269	      3.94798604	      4.51254407
     46.58000000	      0.24640318	      2.89790146	     -1.98664947	      3.98897570	      4.61212753
     46.59000000	      0.24658009	      2.87919498	     -2.04939001	      4.03418157	      4.68708283
     46.60000000	      0.24678764	      2.87642815	     -2.13092943	      4.08201382	      4.74362667
     46.61000000	      0.24700541	      2.86299503	     -2.22242191	      4.13102653	      4.75852699
     46.62000000	      0.24723143	      2.89584897	     -2.32379317	      4.17751343	      4.79762106
     46.63000000	      0.24744632	      2.89932305	     -2.42216650	      4.22175011	      4.78543347
     46.64000000	      0.24764822	      2.91072258	     -2.51799587	      4.26184234	      4.76477155
     46.65000000	      0.24782779	      2.92429427	     -2.60724967	      4.29739240	      4.73508488
     46.66000000	      0.24798402	      2.93760571	     -2.68833016	      4.32785314	      4.69520121
     46.67000000	      0.24810763	      2.90781506	     -2.75063258	      4.35232347	      4.60780129
     46.68000000	      0.24819976	      2.92160372	     -2.81148787	      4.37343183	      4.56142529
     46.69000000	      0.24826999	      2.87470415	     -2.84848033	      4.38641348	      4.45122336
     46.70000000	      0.24831313	      2.85687438	     -2.88123341	      4.39542070	      4.36799662
     46.71000000	      0.24833052	      2.83897163	     -2.90520782	      4.40077635	      4.28583235
     46.72000000	      0.24832544	      2.85243397	     -2.93054091	      4.40545739	      4.23505303
     46.73000000	      0.24831129	      2.80996688	     -2.92953593	      4.40119351	      4.13466052
     46.74000000	      0.24827914	      2.79879902	     -2.93031998	      4.39699787	      4.06813681
     46.75000000	      0.24823377	      2.80911668	     -2.93331506	      4.39385021	      4.02512723
     46.76000000	      0.24818888	      2.78888837	     -2.91536813	      4.38313133	      3.96218811
     46.77000000	      0.24813199	      2.80773518	     -2.90179453	      4.37336686	      3.94219219
     46.78000000	      0.24807105	      2.79291911	     -2.87552568	      4.36063866	      3.89377467
     46.79000000	      0.24800360	      2.81122012	     -2.85689359	      4.35017914	      3.87739710
     46.80000000	      0.24793838	      2.82229840	     -2.82424874	      4.33410620	      3.86509448
     46.81000000	      0.24786296	      2.83608271	     -2.79439316	      4.31991613	      3.85241996
     46.82000000	      0.24778764	      2.85245143	     -2.76381375	      4.30517264	      3.84092540
     46.83000000	      0.24770965	      2.87170914	     -2.73258812	      4.29001374	      3.83077223
     46.84000000	      0.24763147	      2.89489316	     -2.70175109	      4.27449519	      3.82170011
     46.85000000	      0.24755512	      2.92318063	     -2.67216283	      4.25868591	      3.81383927
     46.86000000	      0.24747856	      2.95733262	     -2.64466175	      4.24289488	      3.80734837
     46.87000000	      0.24740032	      2.98988412	     -2.62558373	      4.23041770	      3.78677564
     46.88000000	      0.24732871	      3.05427013	     -2.60824116	      4.21617528	      3.80082954
     46.89000000	      0.24726091	      3.08771486	     -2.59060493	      4.20301402	      3.77559328
     46.90000000	      0.24720217	      3.12240522	     -2.57485471	      4.19046128	      3.75053983
     46.91000000	      0.24715881	      3.15698496	     -2.56142536	      4.17887624	      3.72551821
     46.92000000	      0.24711075	      3.22183725	     -2.56323202	      4.17395634	      3.72755581
     46.93000000	      0.24708198	      3.25448784	     -2.55936235	      4.16821251	      3.69875883
     46.94000000	      0.24706172	      3.28618706	     -2.55796211	      4.16429251	      3.66968208
     46.95000000	      0.24705077	      3.31633468	     -2.55879303	      4.16190548	      3.63943562
     46.96000000	      0.24704537	      3.34402046	     -2.56128175	      4.16138549	      3.60902498
